<?xml version="1.0" standalone="no"?>
<!DOCTYPE svg PUBLIC "-//W3C//DTD SVG 20010904//EN"
 "http://www.w3.org/TR/2001/REC-SVG-20010904/DTD/svg10.dtd">
<svg version="1.0" xmlns="http://www.w3.org/2000/svg"
 width="1000.000000pt" height="561.000000pt" viewBox="0 0 1000.000000 561.000000"
 preserveAspectRatio="xMidYMid meet">
<metadata>
Created by potrace 1.16, written by Peter Selinger 2001-2019
</metadata>
<g transform="translate(0.000000,561.000000) scale(0.100000,-0.100000)"
fill="#000000" stroke="none">
<path d="M16 5368 c-4 -134 -4 -258 0 -275 6 -32 28 -45 36 -21 5 15 28 1 28
-18 0 -19 -38 -56 -50 -49 -6 4 -10 1 -10 -4 0 -6 5 -11 11 -11 8 0 8 -4 1
-13 -14 -17 -26 -823 -12 -832 6 -4 7 -12 1 -24 -11 -20 -9 -1500 2 -1517 7
-13 37 -16 396 -44 169 -14 258 -17 265 -10 6 6 6 17 -1 33 -7 15 -8 29 -1 41
6 10 8 101 6 227 -2 157 0 209 9 209 6 0 14 -4 17 -9 4 -5 25 -12 49 -16 73
-12 69 3 71 -261 l1 -239 65 -7 c80 -9 513 -34 825 -48 127 -5 340 -15 475
-20 135 -6 487 -13 783 -16 456 -4 537 -3 537 9 0 12 -58 15 -332 21 -266 6
-338 11 -356 22 -37 24 -16 34 69 34 56 0 79 4 79 13 0 8 3 7 10 -3 7 -12 54
-15 270 -18 l261 -4 -3 104 -3 103 -107 3 c-102 3 -108 2 -108 -17 0 -11 -12
-28 -26 -38 -14 -10 -38 -31 -52 -47 l-27 -28 -5 33 c-3 22 -13 37 -28 45 -33
16 -42 27 -47 57 -6 29 8 35 63 29 27 -4 32 -8 27 -23 -5 -13 -1 -19 10 -19
11 0 15 5 12 15 -4 8 -3 16 1 18 4 3 66 1 137 -2 126 -7 172 -3 146 14 -7 4
-112 11 -234 16 -122 4 -253 10 -292 13 -38 3 -122 9 -185 12 -112 6 -161 18
-144 34 5 4 108 2 229 -5 121 -7 313 -16 428 -20 l207 -7 0 141 c0 104 -3 143
-12 146 -7 2 -94 9 -193 15 -229 13 -666 51 -770 66 -61 9 -75 14 -75 30 0 10
6 13 18 10 53 -16 892 -95 1020 -96 10 0 12 32 11 144 l-2 145 -61 5 c-34 3
-166 15 -294 26 l-233 20 -32 -23 c-18 -13 -40 -27 -51 -31 -12 -4 -16 -12
-12 -22 4 -9 1 -23 -5 -30 -9 -11 -16 -9 -40 8 -32 24 -30 38 9 39 16 1 5 6
-28 13 -52 11 -55 13 -58 44 -2 19 1 32 8 32 6 0 8 5 4 12 -5 8 5 9 34 5 37
-4 42 -3 42 14 0 10 5 19 10 19 6 0 10 9 10 20 0 11 -3 20 -7 20 -5 0 -25 16
-45 35 -20 19 -41 35 -47 35 -17 0 -13 -37 4 -44 32 -12 13 -26 -36 -26 -49 0
-50 -1 -47 -27 2 -23 8 -29 35 -31 23 -2 30 -7 26 -18 -7 -18 -44 -18 -158 1
-116 19 -115 19 -115 -8 0 -13 -6 -31 -13 -41 -12 -16 -14 -16 -26 -2 -8 9
-21 31 -30 48 -11 23 -25 34 -48 39 -25 5 -75 37 -61 39 2 1 44 7 93 15 50 8
101 14 115 14 22 0 23 -1 8 -10 -10 -5 -18 -18 -18 -28 0 -19 35 -31 91 -31
l29 0 -22 35 c-13 19 -30 36 -38 38 -8 2 5 9 30 16 62 18 100 33 100 38 0 3
-11 18 -25 35 -30 36 -33 86 -6 119 27 33 86 32 115 -2 l22 -25 26 28 c33 36
79 38 113 4 23 -23 24 -23 41 -5 26 29 88 25 121 -7 l25 -25 95 40 c97 42 227
114 238 131 3 6 14 10 23 10 30 0 -49 -59 -132 -98 l-78 -37 5 -62 c4 -35 3
-63 0 -63 -3 0 -29 18 -57 40 -56 43 -96 46 -96 8 0 -24 -37 -88 -51 -88 -5 0
-9 -27 -9 -60 0 -33 -3 -60 -7 -61 -5 0 -16 -2 -25 -4 -18 -3 -58 21 -58 36 0
5 7 9 16 9 14 0 16 8 10 47 -7 56 -28 83 -52 68 -19 -12 -26 -122 -9 -129 6
-3 -6 -2 -25 1 -25 3 -31 2 -21 -5 9 -7 12 -20 8 -40 -8 -42 25 -51 60 -16 28
29 47 27 51 -4 4 -23 17 -27 137 -36 39 -4 124 -11 190 -16 66 -6 145 -12 176
-15 l56 -4 5 247 c3 136 3 253 0 261 -3 7 -18 19 -35 26 l-29 12 31 29 c40 38
45 71 36 226 l-7 123 -58 2 c-195 4 -212 173 -30 307 79 59 158 88 247 94 152
9 222 -73 162 -191 -25 -49 -85 -108 -140 -139 l-39 -22 0 -120 0 -120 33 30
32 29 -32 -35 -33 -36 0 -367 0 -367 42 0 c23 0 71 -5 107 -11 91 -16 54 -30
-60 -22 l-86 5 -2 -145 -2 -145 148 -6 c200 -9 273 -16 273 -28 0 -8 -342 -3
-405 6 -6 0 -11 -53 -13 -140 l-3 -141 122 -6 c67 -4 162 -7 211 -7 83 0 110
-9 71 -25 -10 -3 -102 -6 -205 -5 -124 0 -188 -3 -188 -10 0 -5 15 -11 33 -11
l32 -2 -30 -4 c-16 -3 -32 -9 -35 -13 -3 -5 -5 -53 -5 -107 l0 -98 198 -3
c108 -1 197 -6 197 -10 0 -4 -7 -15 -14 -25 -13 -16 -30 -18 -195 -15 -100 2
-181 0 -181 -4 0 -5 -1 -11 -2 -15 -2 -5 69 -10 157 -13 163 -5 214 -20 102
-30 -47 -4 -62 -10 -77 -30 -11 -14 -20 -28 -20 -32 0 -16 -25 -7 -52 19 -20
19 -38 26 -70 27 l-43 1 0 -50 0 -49 230 2 c127 2 249 5 272 8 34 5 43 3 52
-14 6 -11 7 -22 4 -26 -3 -3 -45 -6 -93 -6 l-86 0 -43 -40 c-23 -22 -52 -40
-63 -40 -15 0 -18 -5 -14 -22 3 -13 3 -17 0 -10 -3 6 -12 12 -20 12 -10 0 -13
-10 -10 -32 l3 -33 159 1 c88 0 217 1 287 2 l128 2 -1 201 c-1 110 0 203 2
205 2 2 20 1 39 -2 l34 -6 -3 -398 c-2 -348 -1 -398 13 -404 19 -7 17 -29 16
264 -1 153 2 239 8 230 16 -26 31 -190 31 -342 0 -92 4 -148 10 -148 15 0 12
225 -4 365 -16 128 -23 158 -37 150 -13 -9 -22 41 -14 87 3 24 7 57 7 74 1 27
4 30 16 18 7 -8 18 -14 25 -14 6 0 3 6 -6 12 -15 12 -15 18 -3 65 15 55 67
165 98 205 17 22 18 22 18 3 0 -59 -72 -290 -121 -389 -41 -79 5 -48 67 46 28
44 29 48 9 48 -29 0 -14 19 18 22 18 2 31 8 30 15 -3 13 71 241 81 250 3 4 6
17 6 29 0 13 9 28 20 34 11 6 20 15 20 21 0 5 9 19 20 31 l20 22 0 -30 c0 -42
-46 -215 -76 -287 -33 -79 -79 -147 -148 -221 -47 -50 -53 -62 -46 -81 16 -41
29 -177 31 -315 1 -74 4 -139 7 -143 2 -5 12 -1 22 8 16 14 44 17 196 15 136
-1 182 -4 194 -15 11 -9 54 -14 155 -16 l140 -3 7 179 c4 106 13 209 22 249
l17 70 -43 43 c-44 45 -53 45 -61 3 -2 -14 -5 -3 -6 24 -1 36 -7 56 -28 80
-53 63 -102 198 -149 414 -7 32 11 27 37 -10 13 -18 29 -37 36 -41 17 -11 16
-22 -4 -43 -16 -16 -16 -16 4 -10 19 6 24 -3 54 -96 23 -69 39 -103 49 -103 8
0 16 -8 18 -17 2 -10 -1 -18 -7 -18 -14 0 -14 -37 -1 -45 6 -3 10 -2 10 3 0 6
9 8 20 5 23 -6 27 -23 5 -23 -22 0 -20 -5 32 -83 l47 -70 -14 -71 c-16 -88
-26 -456 -13 -456 13 0 23 107 23 255 0 243 15 240 20 -5 5 -214 7 -235 23
-238 16 -3 17 18 15 397 l-3 401 35 0 35 0 -3 -211 c-2 -160 0 -209 9 -203 7
4 140 6 295 6 156 -1 284 1 284 5 0 3 -7 15 -17 25 -9 10 -12 18 -7 18 5 0 15
-9 22 -20 14 -23 32 -27 32 -7 0 19 -40 52 -78 65 -18 6 -49 26 -68 44 -32 31
-40 33 -122 38 -73 4 -87 8 -90 23 -4 17 10 18 272 15 l276 -3 0 53 c0 49 -1
52 -26 52 -31 0 -60 -14 -95 -47 l-26 -24 -24 36 c-27 40 -42 47 -105 47 -44
0 -58 11 -28 22 9 3 81 6 160 6 121 0 144 2 144 15 0 13 -26 15 -175 15 -147
0 -175 2 -175 15 0 28 39 35 193 35 115 0 156 3 159 13 2 6 2 63 0 125 l-4
112 -64 0 c-49 0 -64 3 -64 15 0 14 29 22 100 27 l35 3 2 523 c2 409 0 522
-10 522 -6 0 -32 -9 -56 -20 -24 -11 -46 -18 -49 -15 -3 3 7 30 23 60 l30 54
25 -24 c15 -14 29 -25 33 -25 4 0 7 119 7 264 l0 265 -62 43 c-72 50 -123 112
-138 169 -9 33 -8 46 7 77 28 57 70 74 173 70 75 -3 95 -9 162 -42 165 -81
252 -221 191 -305 -28 -37 -67 -53 -137 -56 l-61 -2 -2 -617 c-1 -364 2 -618
8 -621 14 -9 652 41 778 61 45 7 37 -18 -10 -27 -43 -9 -629 -59 -691 -59 -81
0 -78 5 -78 -152 l0 -141 178 7 c97 3 240 9 317 12 132 6 139 5 123 -11 -14
-15 -54 -19 -280 -31 -144 -7 -280 -13 -300 -14 -25 0 -38 -5 -38 -13 0 -11
17 -13 73 -11 274 12 277 12 277 0 0 -7 -9 -21 -20 -31 -21 -19 -28 -7 -8 13
9 9 8 12 -5 12 -9 0 -17 -7 -17 -15 0 -17 -16 -20 -25 -5 -11 18 -26 10 -23
-12 4 -26 42 -39 78 -26 29 11 40 25 40 56 0 15 6 22 20 22 24 0 24 -1 6 -44
-9 -22 -23 -36 -40 -40 -22 -5 -26 -12 -26 -42 0 -42 -23 -43 -28 -1 -3 20 -9
27 -26 27 -24 0 -48 22 -59 53 -6 15 -20 17 -112 17 l-105 0 0 -105 0 -106
233 1 c137 1 242 -3 257 -9 14 -5 22 -11 18 -12 -5 -1 -11 -2 -15 -4 -75 -20
-123 -24 -320 -24 -150 -1 -173 -3 -173 -17 0 -13 25 -15 213 -13 118 1 218 0
223 -3 15 -9 1151 29 1564 52 260 14 533 31 640 38 l95 7 1 40 c0 22 1 131 2
242 l2 202 38 10 c76 22 71 31 75 -166 l2 -178 3 181 c2 155 4 184 19 195 15
13 16 -1 9 -201 -7 -209 -6 -216 14 -238 15 -16 17 -22 7 -22 -17 0 -28 -32
-17 -50 4 -7 16 -10 26 -7 11 4 91 11 179 17 88 6 180 12 205 15 126 12 167
17 182 21 17 5 18 50 18 765 0 584 -3 759 -12 759 -9 0 -9 3 0 12 9 9 12 88
12 295 l0 283 -42 0 c-50 0 -41 16 12 23 33 4 33 4 -7 5 -42 2 -43 3 -43 37 0
34 1 35 40 35 l40 0 0 95 0 95 -40 0 c-22 0 -40 5 -40 10 0 6 18 10 40 10 34
0 40 3 40 20 0 12 -10 25 -22 31 l-23 10 23 -5 22 -4 0 269 0 269 -4988 0
-4989 0 -7 -242z m9234 86 c75 -17 184 -69 242 -116 52 -41 118 -142 118 -181
0 -20 -11 -40 -35 -64 -34 -34 -36 -34 -112 -32 -89 2 -85 9 -59 -96 l15 -60
-1 47 c-1 26 2 51 7 55 4 5 5 2 0 -6 -6 -11 -4 -13 9 -8 12 5 15 3 10 -5 -4
-7 -8 -21 -9 -32 -1 -12 -6 -47 -10 -79 -6 -46 -5 -61 6 -68 10 -7 5 -8 -13
-3 l-27 6 -1 -244 c0 -133 -3 -329 -6 -435 -3 -131 -2 -193 6 -198 5 -3 7 -11
3 -18 -3 -6 -8 -55 -10 -110 l-4 -98 45 6 c66 10 61 -22 -7 -45 l-38 -12 1
-71 c2 -94 2 -97 -10 -97 -5 0 -11 30 -13 68 l-3 67 -2 -77 c-2 -70 -4 -78
-28 -97 -15 -12 -40 -21 -55 -21 -32 0 -31 -5 -29 113 1 42 0 77 -2 77 -2 0
-25 -7 -52 -15 -51 -15 -66 -13 -66 10 0 9 24 21 61 31 l60 17 -3 730 -3 729
-69 45 c-134 87 -188 189 -135 257 36 46 110 56 219 30z m-8245 -38 c39 -17
55 -42 55 -89 0 -54 -53 -123 -145 -189 -64 -46 -79 -62 -77 -80 1 -13 2 -38
2 -57 -1 -29 2 -33 20 -28 18 5 20 0 20 -39 0 -35 4 -44 18 -45 9 0 2 -5 -15
-10 -18 -5 -37 -18 -42 -27 -15 -27 -13 -982 2 -982 8 0 8 -3 -1 -12 -8 -8
-12 -46 -12 -104 l0 -91 60 -17 c36 -10 60 -22 60 -31 0 -23 -14 -25 -70 -10
l-53 14 7 -95 6 -94 -31 0 c-35 0 -89 34 -89 55 0 9 -6 12 -15 9 -13 -5 -15 7
-15 80 l0 85 -40 11 c-22 6 -40 12 -40 15 0 2 -3 11 -7 21 -5 15 -1 16 40 10
l47 -7 0 90 c0 52 -4 93 -10 96 -8 5 -7 11 1 21 8 10 10 158 8 564 l-4 550
-60 -5 c-80 -7 -125 10 -149 56 -19 35 -19 38 -2 85 61 163 379 313 531 250z
m1424 -66 c10 0 61 -68 61 -82 0 -4 -22 -10 -49 -14 -27 -3 -53 -9 -59 -13
-16 -10 -92 -218 -92 -252 0 -16 -4 -29 -10 -29 -5 0 -10 -5 -10 -11 0 -5 4
-8 9 -5 13 8 42 -4 35 -15 -3 -5 0 -9 5 -9 6 0 11 5 11 10 0 6 5 10 10 10 6 0
10 -10 10 -23 0 -18 15 -31 70 -61 39 -20 70 -41 70 -45 0 -11 -77 -21 -159
-21 -101 0 -137 -9 -149 -35 -8 -18 -8 -25 2 -28 22 -9 181 -125 202 -148 l19
-21 -120 6 c-66 3 -136 8 -156 12 -36 6 -36 5 -92 -78 -32 -47 -57 -89 -57
-95 0 -7 -7 -18 -15 -26 -16 -17 -12 -24 84 -129 24 -27 42 -51 38 -54 -8 -8
-169 45 -188 62 -13 12 -18 12 -35 -1 -32 -24 -37 -17 -10 16 14 17 26 35 26
40 0 6 14 24 30 42 17 18 28 38 25 45 -3 7 -1 11 4 8 5 -3 20 11 33 32 54 81
75 118 82 139 4 12 13 27 21 33 8 7 15 21 15 31 0 11 4 19 9 19 5 0 11 7 15
15 10 28 -14 15 -72 -37 -33 -29 -83 -73 -112 -98 -29 -25 -65 -55 -79 -67
-14 -13 -29 -23 -33 -23 -10 0 -38 48 -125 215 -43 83 -85 160 -93 172 -11 18
-12 24 -1 37 8 9 19 16 25 16 6 0 18 9 26 20 8 11 22 20 31 20 10 0 19 4 21 8
4 11 86 65 122 80 20 9 32 10 40 2 16 -16 26 -12 26 10 0 14 -5 18 -17 14 -15
-5 -16 -4 -3 5 18 13 21 13 39 2 12 -8 12 -12 2 -25 -12 -14 -11 -16 6 -16 10
0 25 6 33 13 12 10 12 9 1 -5 -11 -15 -10 -20 4 -34 14 -14 21 -15 36 -6 10 7
27 12 36 12 15 -1 14 -4 -6 -20 -23 -20 -23 -20 -2 -20 12 0 21 5 21 10 0 6
18 10 40 10 22 0 40 -4 40 -9 0 -13 43 -19 68 -10 12 5 21 5 21 1 -4 -28 2
-34 15 -16 10 12 11 21 4 25 -6 4 -7 12 -4 18 4 6 11 9 16 6 7 -4 108 239 145
355 16 47 19 51 26 32 5 -12 13 -22 18 -22z m5809 -354 l23 -12 -54 -105
c-107 -207 -159 -299 -168 -299 -5 0 -38 27 -73 60 -35 34 -81 75 -102 93 -22
18 -60 52 -87 77 l-48 45 31 37 c21 25 36 35 48 32 13 -5 14 -4 3 4 -17 12 -6
33 14 25 8 -3 15 0 15 6 0 7 15 10 38 9 89 -5 162 2 162 16 0 18 32 26 54 14
19 -11 56 -2 56 13 0 12 53 3 88 -15z m-7933 -601 c14 -13 25 -35 25 -49 l0
-25 25 24 c45 46 125 21 125 -40 0 -21 3 -24 28 -19 19 4 36 -1 56 -17 24 -19
27 -27 23 -56 -8 -44 -21 -60 -58 -68 -27 -6 -29 -10 -29 -56 0 -42 -3 -49
-20 -49 -18 0 -20 7 -20 75 0 43 -4 75 -10 75 -5 0 -10 -14 -10 -31 0 -46 -16
-69 -50 -69 -17 0 -30 5 -30 10 0 6 7 10 15 10 11 0 15 13 15 53 0 48 -3 56
-30 75 -20 16 -30 31 -30 50 l0 27 -27 -28 c-24 -23 -28 -35 -29 -94 -1 -65
-3 -68 -25 -68 -23 0 -24 2 -21 61 3 57 2 64 -27 93 -58 59 -32 141 44 141 25
0 44 -8 60 -25z m9524 -1 c29 -37 27 -77 -6 -106 -32 -28 -33 -30 -34 -109 -1
-49 -4 -59 -16 -55 -8 3 -21 6 -29 6 -9 0 -12 5 -8 12 7 11 7 55 1 99 -2 8
-13 29 -25 46 -46 64 -15 133 59 133 29 0 42 -6 58 -26z m-172 -39 c30 -21 39
-69 19 -100 -9 -14 -23 -25 -31 -25 -12 0 -15 -14 -15 -60 0 -33 4 -60 10 -60
6 0 10 -4 10 -10 0 -11 -30 -13 -54 -4 -12 4 -16 20 -16 58 -1 44 -2 49 -14
34 -8 -11 -12 -41 -11 -83 3 -62 2 -65 -21 -65 -17 0 -22 4 -18 15 13 34 -6
80 -39 95 -58 27 -63 107 -8 130 16 6 39 9 50 5 17 -5 21 -2 21 17 0 59 66 89
117 53z m-7943 -385 c2 0 17 7 35 16 46 23 79 10 108 -45 1 -1 12 4 25 13 30
21 71 20 99 -3 19 -15 23 -28 23 -62 -1 -35 -7 -47 -34 -69 -31 -25 -32 -29
-26 -73 l7 -47 -30 0 c-17 0 -34 0 -38 -1 -17 -2 -12 19 6 24 17 4 18 9 10 53
-5 26 -16 55 -24 64 -8 9 -15 22 -15 28 0 17 -6 15 -36 -13 -24 -23 -26 -30
-21 -75 l6 -50 -36 15 c-19 8 -38 15 -42 15 -3 0 1 4 9 10 21 13 20 69 -2 81
-9 5 -23 27 -29 49 -13 42 -32 49 -37 13 -2 -12 -12 -29 -23 -39 -13 -12 -19
-30 -19 -59 0 -34 -4 -44 -25 -55 -27 -15 -46 -7 -27 12 22 22 14 63 -19 87
-61 46 -59 120 6 141 17 6 42 22 55 35 l23 24 34 -44 c19 -25 35 -45 37 -45z
m6746 25 c52 -27 52 -103 0 -133 -34 -20 -49 -71 -25 -88 20 -15 19 -24 -2
-24 -31 1 -49 24 -51 64 -2 21 -12 50 -22 64 -26 32 -26 86 0 112 24 24 60 26
100 5z m-172 -28 c29 -27 29 -71 -2 -102 -25 -25 -36 -70 -23 -92 5 -8 -3 -18
-23 -28 -33 -17 -33 -18 -30 43 1 35 -4 47 -29 73 -27 26 -31 28 -31 11 0 -11
-7 -25 -15 -32 -8 -7 -15 -26 -15 -42 0 -16 -5 -38 -10 -49 -9 -16 -7 -21 15
-29 37 -14 23 -28 -22 -21 l-38 6 3 53 c2 28 0 52 -5 52 -21 0 -45 28 -53 63
-7 33 -5 42 17 67 28 34 66 39 102 14 21 -15 23 -15 38 6 30 43 78 46 121 7z
m-3450 11 c-16 -5 -28 -14 -28 -18 0 -5 -18 -28 -39 -52 -22 -23 -38 -44 -36
-46 2 -3 26 11 52 30 81 59 89 62 222 63 l124 2 71 -48 c73 -49 92 -55 59 -21
-30 32 -48 56 -50 67 0 5 -14 15 -30 22 -28 12 -28 12 -3 12 14 0 39 -9 55
-19 68 -43 88 -51 111 -46 25 7 27 3 28 -69 1 -26 4 -30 26 -27 13 1 31 0 39
-3 26 -10 -9 -26 -41 -19 -21 4 -28 2 -28 -10 0 -19 -34 -30 -66 -22 -14 4
-44 24 -67 44 -23 21 -59 49 -80 62 -25 17 -36 31 -33 43 5 21 -7 21 -62 0
-44 -16 -77 -14 -144 12 -13 5 -18 2 -18 -11 0 -11 -20 -33 -48 -51 -26 -18
-63 -46 -82 -63 -19 -16 -49 -32 -66 -36 -28 -5 -33 -2 -45 22 -8 16 -14 52
-14 79 0 44 2 50 20 48 34 -4 63 6 87 30 13 13 29 22 35 20 6 -2 14 1 18 6 3
6 18 11 33 10 l27 -1 -27 -10z m2247 -158 c16 -17 17 -17 40 6 34 34 79 32
115 -5 22 -21 30 -25 34 -14 9 23 71 44 100 33 51 -19 62 -90 20 -139 -17 -20
-26 -43 -27 -71 -1 -24 -6 -40 -13 -40 -7 0 -14 -5 -16 -10 -5 -15 -68 0 -68
16 0 8 7 14 15 14 8 0 15 6 16 13 3 36 -5 74 -20 93 l-17 22 -33 -34 c-30 -30
-33 -39 -28 -73 6 -50 -5 -62 -46 -49 -31 10 -32 11 -29 61 2 34 -2 59 -11 71
-14 19 -15 19 -29 -5 -9 -13 -18 -45 -22 -71 -5 -39 -3 -48 10 -48 9 0 14 -7
12 -17 -2 -12 -16 -20 -41 -24 l-37 -6 0 63 c0 57 -3 65 -31 94 -26 26 -30 36
-25 62 15 74 87 106 131 58z m-2191 -14 c-3 -8 6 -36 20 -63 26 -49 35 -47 15
4 -8 22 -7 30 5 39 9 6 16 16 16 22 0 6 25 10 60 10 33 0 57 -4 54 -9 -3 -5 2
-12 11 -15 14 -6 16 -15 10 -53 l-6 -46 25 50 c18 36 22 53 14 63 -8 9 -7 11
6 6 12 -5 15 -12 10 -28 -4 -11 -8 -30 -9 -41 0 -11 -6 -30 -13 -42 -25 -44
-5 -47 22 -3 9 17 22 28 27 24 5 -3 6 -10 3 -16 -5 -7 -1 -9 8 -5 9 3 23 -2
33 -13 16 -17 15 -19 -9 -35 -32 -21 -34 -37 -3 -30 21 6 22 3 25 -55 1 -34
-1 -66 -5 -73 -26 -42 8 -130 55 -142 38 -10 201 -14 207 -5 4 7 -72 20 -117
21 -24 0 -27 18 -24 150 1 113 11 149 38 149 5 0 9 -51 8 -122 -2 -175 -4
-164 18 -145 23 21 39 22 22 2 -10 -13 -9 -15 9 -15 14 0 21 6 21 20 0 11 6
29 12 40 12 19 13 19 25 -3 l12 -22 9 25 c5 14 13 24 18 24 5 -1 8 2 6 7 -1 5
2 9 7 9 9 0 21 -47 21 -81 0 -11 -9 -19 -22 -21 -13 -2 -24 -11 -26 -20 -3
-16 8 -18 105 -20 107 -2 177 -5 201 -7 6 0 12 -5 12 -11 0 -7 -280 -10 -820
-10 -540 0 -820 3 -820 10 0 6 4 10 8 10 5 0 19 9 32 20 13 11 18 20 12 20 -7
0 -12 5 -12 11 0 7 30 8 93 3 103 -7 127 -14 50 -14 -36 0 -53 -4 -57 -15 -4
-13 10 -15 94 -15 54 0 101 4 104 9 3 4 -3 16 -14 26 -13 11 -20 14 -20 6 0
-7 -4 -9 -10 -6 -12 7 -12 62 0 90 7 17 9 16 9 -9 1 -28 2 -28 14 -11 13 17
14 17 21 -6 l8 -24 7 25 c7 24 8 23 26 -17 17 -38 22 -42 52 -41 l33 1 0 139
c0 76 4 138 9 138 24 0 32 -34 32 -151 1 -157 3 -147 -23 -148 -48 -1 -122
-16 -108 -22 25 -9 183 -2 213 10 15 6 27 17 27 26 0 8 5 15 10 15 11 0 5 223
-6 243 -4 7 2 4 13 -5 11 -10 25 -18 31 -18 22 0 12 19 -18 35 -16 9 -30 20
-30 26 0 6 4 8 9 4 5 -3 17 2 25 11 9 8 16 12 16 7 1 -4 6 2 13 15 13 22 13
22 32 -15 13 -27 20 -33 22 -21 3 9 -1 27 -8 40 -14 26 -21 76 -13 89 8 14 14
11 8 -5z m-4410 -36 c22 -8 26 -16 26 -53 0 -146 113 -347 228 -406 54 -27
145 -28 185 -3 66 44 117 149 117 242 0 42 3 48 23 52 47 9 59 -45 36 -154
-18 -81 -44 -134 -90 -179 -79 -78 -168 -91 -274 -40 -146 68 -236 212 -280
446 -22 116 -22 115 29 95z m9146 1 c0 -33 -37 -190 -60 -258 -63 -181 -191
-301 -332 -311 -76 -6 -97 1 -157 48 -71 56 -109 141 -126 278 -6 52 -6 53 27
67 18 7 36 11 39 7 4 -4 9 -36 11 -72 5 -87 45 -171 101 -211 33 -24 50 -29
99 -29 104 0 193 67 260 197 46 88 57 124 60 201 3 65 8 76 43 85 32 8 35 7
35 -2z m-2830 -263 c63 -37 67 -38 135 -33 107 9 115 12 115 40 0 32 17 32 51
-1 39 -37 70 -26 62 21 -3 19 -2 35 1 35 12 0 40 -32 53 -59 6 -14 12 -20 12
-13 1 6 14 12 29 12 21 0 32 -7 40 -25 15 -33 6 -52 -28 -60 -20 -4 -27 -11
-23 -23 2 -11 -7 -26 -26 -39 -25 -19 -31 -20 -41 -8 -7 8 -9 24 -5 36 6 19 4
21 -23 17 -18 -3 -29 0 -26 6 2 6 -7 19 -20 28 -19 14 -37 16 -100 11 -42 -3
-76 -10 -76 -15 0 -11 46 -29 83 -33 15 -1 31 -6 35 -10 4 -5 1 -5 -5 -1 -22
13 -14 -12 9 -28 38 -27 6 -18 -66 19 -79 40 -76 39 -76 24 0 -12 -90 -98
-104 -99 -5 0 -6 27 -3 61 l5 61 -81 -2 c-45 -1 -93 -1 -107 0 l-25 2 24 7
c25 7 30 17 51 99 l11 44 27 -18 c15 -10 56 -35 92 -56z m-6554 -69 l70 -11 3
-86 3 -86 -23 19 c-26 23 -91 93 -140 149 -33 38 -33 39 -9 33 14 -3 57 -11
96 -18z m5265 -176 c0 -5 3 -17 6 -28 8 -32 6 -67 -5 -74 -5 -3 -10 -18 -10
-33 0 -20 7 -28 27 -34 32 -9 42 -9 63 0 9 4 37 4 60 -1 28 -6 52 -6 66 0 23
11 112 -9 112 -24 0 -5 -143 -9 -319 -9 -270 0 -320 -2 -331 -15 -15 -18 -30
-11 -29 13 0 14 2 13 8 -3 8 -19 9 -18 21 7 15 33 54 43 105 29 25 -7 44 -7
59 0 16 8 35 8 61 0 34 -9 60 -5 83 14 2 1 -5 18 -14 38 -16 32 -15 37 1 81
16 41 34 60 36 39z m-5021 -119 c2 -3 5 -101 5 -217 l0 -212 -37 -3 -38 -3 0
203 c0 239 2 252 39 243 14 -4 28 -9 31 -11z m9154 -6 c3 -13 6 -111 6 -219 0
-196 0 -197 -22 -203 -61 -16 -58 -26 -58 209 0 193 2 215 18 224 28 17 49 12
56 -11z m-5275 -46 c32 8 48 8 62 0 18 -12 35 -9 76 11 18 8 27 7 40 -6 15
-13 26 -14 65 -6 32 7 53 7 66 0 15 -8 33 -7 66 3 50 15 61 11 91 -36 10 -17
13 -28 6 -28 -6 0 -11 7 -11 15 0 13 -42 15 -315 15 -181 0 -315 4 -315 9 0 5
19 15 43 23 34 11 46 11 62 1 15 -9 30 -10 64 -1z m-3269 -229 l0 -183 -35 0
-35 0 0 184 c0 179 1 184 22 198 41 28 47 2 48 -199z m7928 184 c9 -7 12 -57
12 -188 l0 -179 -35 0 c-19 0 -35 3 -35 8 -3 66 -4 208 -2 284 2 94 2 96 25
91 12 -3 28 -10 35 -16z m-4268 -51 c0 -2 -26 -19 -57 -39 -115 -71 -208 -193
-248 -324 -20 -65 -19 -73 10 -73 19 0 26 7 31 28 35 151 136 277 281 349 39
19 74 41 77 48 7 20 306 21 306 2 0 -7 34 -28 76 -47 127 -55 257 -205 287
-329 8 -34 18 -52 32 -57 13 -5 -1 -9 -45 -13 -36 -3 -67 -5 -69 -4 -2 2 3 11
13 21 15 18 14 23 -24 100 -49 97 -128 175 -228 224 -65 32 -71 33 -192 33
-122 0 -127 -1 -192 -33 -113 -55 -213 -162 -249 -265 -11 -30 -11 -42 -1 -57
12 -19 9 -20 -44 -20 -51 0 -55 -1 -43 -17 13 -15 11 -16 -13 -11 -32 6 -29
28 -32 -227 l-1 -160 -75 -7 c-121 -11 -110 -42 -110 306 0 167 3 364 7 439
l6 137 249 0 c136 0 248 -2 248 -4z m1000 -426 c0 -236 0 -433 0 -437 0 -5
-37 -8 -82 -8 l-83 0 -6 230 c-5 220 -7 233 -33 305 -16 41 -39 93 -52 116
-31 52 -125 142 -192 184 -29 17 -52 34 -52 36 0 2 113 4 250 4 l250 0 0 -430z
m-438 143 c0 -10 1 -25 0 -33 -2 -20 17 -66 43 -110 27 -44 50 -104 59 -152 5
-30 3 -37 -11 -41 -15 -4 -14 -5 3 -6 16 -1 23 -10 28 -32 10 -50 7 -101 -4
-94 -16 10 -64 120 -84 190 -24 82 -37 115 -46 115 -4 0 -8 27 -8 59 0 33 -3
73 -7 90 -5 24 -3 31 9 31 9 0 17 -8 18 -17z"/>
<path d="M4962 3665 c-28 -30 -32 -41 -27 -65 4 -19 3 -30 -4 -30 -6 0 -11 16
-11 35 0 41 -2 42 -46 14 -60 -37 -73 -92 -27 -110 22 -8 34 -7 55 5 25 15 27
15 33 -4 4 -14 11 -18 18 -13 14 10 94 9 104 -1 11 -11 23 -6 23 9 0 17 35 21
45 5 9 -15 30 -12 56 9 21 17 22 21 10 49 -11 27 -64 72 -85 72 -3 0 -6 -13
-6 -29 0 -17 -5 -33 -11 -37 -8 -5 -10 1 -5 19 7 30 -1 57 -18 57 -6 0 -16 10
-21 23 -15 34 -46 32 -83 -8z"/>
<path d="M4830 3421 c0 -22 -5 -42 -12 -44 -10 -4 -9 -8 2 -16 16 -11 328 -15
368 -5 16 5 20 10 13 18 -6 7 -11 29 -13 49 l-2 37 -178 0 -178 0 0 -39z"/>
<path d="M4290 2900 c0 -54 3 -70 14 -70 24 0 29 20 10 35 -18 13 -18 14 -1
15 19 0 23 15 7 25 -5 3 -10 16 -10 27 0 21 0 21 22 -2 19 -21 23 -22 26 -8 2
10 9 15 18 11 8 -3 14 0 14 6 0 6 5 11 10 11 14 0 12 -37 -2 -43 -10 -4 -10
-6 0 -6 6 -1 12 -8 12 -17 0 -8 5 -12 10 -9 7 5 8 11 1 19 -6 8 -3 19 10 36
18 24 19 24 16 3 -3 -31 17 -33 23 -3 5 25 7 26 50 16 39 -8 42 -10 21 -15
-14 -4 -26 -12 -29 -19 -2 -7 2 -10 12 -6 12 4 15 2 10 -9 -13 -34 18 -24 68
23 l53 50 -182 0 -183 0 0 -70z"/>
<path d="M4870 2954 c-90 -23 -141 -54 -220 -134 -78 -77 -123 -152 -135 -222
-9 -55 18 -51 34 5 18 60 85 160 143 212 146 131 367 157 547 65 24 -12 73
-51 110 -88 62 -61 88 -102 129 -204 17 -41 36 -36 29 7 -16 97 -128 244 -235
307 -108 64 -274 86 -402 52z"/>
<path d="M5436 2903 c51 -50 79 -89 107 -147 70 -142 70 -142 76 -381 l6 -220
50 0 50 0 0 405 0 405 -88 3 -88 3 3 -33 c2 -18 8 -32 13 -30 6 2 9 13 7 25
-3 21 -2 21 17 -3 13 -17 16 -28 10 -36 -6 -7 -6 -15 -1 -18 15 -9 21 4 16 40
-2 19 0 34 6 34 5 0 10 -7 10 -16 0 -13 3 -14 14 -5 11 10 15 8 18 -6 3 -15 6
-15 25 7 29 30 37 23 17 -15 -12 -23 -12 -30 -2 -37 10 -6 10 -10 -2 -18 -13
-9 -13 -12 3 -21 24 -14 22 -28 -4 -22 -20 6 -20 6 1 -35 18 -35 20 -50 14
-99 -6 -49 -8 -54 -16 -34 -5 15 -5 28 1 34 10 10 4 37 -10 37 -10 0 -29 -66
-29 -105 0 -16 7 -43 15 -59 22 -41 14 -213 -8 -178 -5 7 -13 10 -18 7 -5 -4
-9 -1 -9 4 0 6 7 11 15 11 33 0 6 176 -32 206 -12 10 -12 12 0 17 18 7 28 101
15 139 -17 48 -28 31 -23 -34 2 -35 2 -53 -1 -40 -3 13 -12 26 -21 29 -11 4
-11 8 -3 13 17 11 3 50 -16 43 -9 -3 -14 2 -14 16 0 12 -6 21 -15 21 -8 0 -12
6 -9 14 3 8 1 17 -5 20 -6 4 -7 14 -4 23 5 13 2 15 -14 11 -15 -4 -23 0 -26
14 -4 14 -2 18 10 14 9 -4 13 -1 11 6 -3 7 -15 15 -29 19 -21 6 -18 7 19 14
70 12 48 25 -44 25 l-86 0 68 -67z"/>
<path d="M38 2552 c-18 -4 -21 -49 -23 -424 l0 -63 35 1 c19 1 145 13 280 28
135 14 271 29 304 32 l59 6 -8 187 c-4 102 -8 187 -10 189 -5 6 -186 22 -295
27 -100 3 -185 9 -295 18 -16 1 -38 1 -47 -1z"/>
<path d="M9855 2549 c-60 -5 -150 -11 -200 -14 -194 -11 -255 -17 -259 -24 -3
-4 -6 -92 -7 -197 l-2 -189 29 -3 c156 -14 526 -54 552 -58 l32 -6 0 251 c0
233 -1 251 -17 249 -10 -1 -67 -5 -128 -9z"/>
<path d="M846 2501 c-9 -14 -19 -348 -10 -353 5 -3 140 5 299 17 383 30 587
44 715 50 58 3 200 9 315 15 259 13 386 18 585 25 85 3 181 8 212 11 53 5 57
8 63 35 4 16 13 29 21 29 16 0 19 -26 4 -35 -35 -22 6 -25 228 -19 130 4 239
8 241 10 9 8 -11 54 -35 77 -21 21 -37 27 -69 27 -48 0 -110 -22 -141 -51 -21
-19 -54 -17 -54 3 0 6 -34 9 -85 7 -57 -2 -89 1 -97 9 -20 20 -35 14 -50 -18
-18 -43 -40 -37 -75 19 l-30 48 -144 7 c-79 4 -217 9 -306 11 -156 4 -163 3
-163 -16 0 -10 -5 -19 -10 -19 -6 0 -10 7 -8 16 5 28 -19 27 -26 -1 -9 -35
-63 -35 -96 0 -29 30 -47 22 -25 -12 16 -23 16 -25 -2 -21 -10 2 -22 17 -27
34 l-9 31 -211 7 c-116 4 -245 9 -286 11 -268 16 -360 16 -360 1 0 -33 -24
-66 -56 -76 -19 -7 -34 -15 -34 -20 0 -4 -11 -10 -25 -12 -16 -3 -25 -1 -25 7
0 7 -14 15 -31 19 -40 8 -89 57 -89 91 0 14 -6 27 -12 29 -31 10 -88 14 -92 7z"/>
<path d="M9088 2498 c-9 -7 -21 -30 -28 -51 -10 -31 -21 -42 -58 -60 -26 -12
-52 -28 -57 -35 -9 -11 -20 -9 -59 12 -66 35 -74 42 -81 78 l-7 30 -122 -6
c-66 -3 -240 -11 -386 -16 -146 -6 -283 -12 -305 -13 -35 -2 -40 -5 -49 -34
-6 -23 -15 -33 -29 -33 -19 0 -19 1 -4 18 19 21 22 42 7 42 -5 0 -10 -4 -10
-9 0 -5 -9 -13 -20 -16 -11 -4 -18 -11 -15 -16 4 -5 -11 -9 -32 -9 -30 0 -40
5 -48 23 -12 26 5 26 -455 14 -173 -5 -319 -13 -324 -18 -6 -5 -31 -9 -57 -9
-26 0 -51 -5 -54 -10 -4 -6 -11 -8 -16 -4 -5 3 -8 0 -7 -8 2 -8 -8 -13 -30
-14 -17 -1 -41 -9 -52 -19 -20 -18 -21 -18 -43 3 -28 27 -99 52 -145 52 -28 0
-42 -8 -69 -37 -60 -69 -54 -73 117 -74 83 -1 153 -2 158 -3 20 -6 241 -16
427 -21 474 -12 1515 -71 1938 -111 l67 -7 0 74 c0 41 -3 125 -7 187 l-6 112
-62 0 c-34 0 -68 -6 -77 -12z"/>
<path d="M5494 2466 c-9 -22 0 -763 9 -772 4 -4 10 -4 15 0 4 4 7 181 7 393 0
300 -3 387 -12 390 -7 3 -16 -2 -19 -11z"/>
<path d="M4500 2080 c0 -253 4 -390 10 -390 6 0 10 137 10 390 0 253 -4 390
-10 390 -6 0 -10 -137 -10 -390z"/>
<path d="M6810 2220 c-10 -6 -69 -7 -161 -3 l-147 6 0 -35 0 -36 63 -4 c49 -3
70 -10 99 -31 20 -16 36 -34 36 -41 0 -19 46 -26 167 -26 99 0 103 1 93 19 -5
11 -19 23 -31 26 -11 4 -18 9 -16 11 10 10 55 -20 66 -42 10 -23 15 -24 105
-24 51 0 108 -3 125 -6 38 -8 43 14 9 47 -14 13 -17 20 -8 17 8 -2 24 -18 35
-35 19 -30 23 -31 115 -37 52 -4 119 -8 148 -10 36 -3 52 -1 52 7 -1 18 -36
56 -62 66 -18 8 -19 10 -5 10 18 1 80 -52 88 -76 4 -11 277 -38 287 -28 9 9
-30 44 -72 64 -22 12 -35 21 -27 21 21 0 93 -45 117 -73 20 -23 30 -25 159
-31 76 -4 144 -10 151 -13 9 -3 14 2 14 12 0 17 -48 69 -85 92 -16 10 -14 10
10 1 40 -16 71 -44 85 -78 10 -25 19 -29 63 -34 29 -3 96 -10 149 -16 122 -13
168 -13 168 0 0 6 -20 31 -45 56 -41 40 -42 43 -14 29 17 -9 43 -36 57 -60 31
-50 5 -43 275 -73 145 -16 167 -16 167 -4 0 27 -50 82 -98 107 -26 14 -36 23
-22 19 60 -15 130 -77 130 -115 0 -26 24 -35 112 -43 l77 -7 0 120 c0 66 -3
122 -7 125 -5 3 -39 7 -78 11 -234 19 -335 27 -464 35 -80 5 -174 12 -210 14
-36 3 -114 8 -175 11 -60 3 -132 8 -160 10 -27 2 -108 7 -180 10 -71 3 -224
10 -340 15 -115 5 -293 12 -395 15 -102 3 -234 7 -295 10 -66 3 -116 1 -125
-5z"/>
<path d="M2720 2214 c-190 -7 -701 -31 -830 -39 -41 -3 -122 -7 -180 -10 -216
-11 -308 -16 -410 -25 -58 -5 -177 -14 -265 -21 -88 -7 -169 -15 -180 -19 -18
-7 -20 -17 -20 -121 l0 -114 29 -3 c49 -6 96 7 96 26 0 38 82 122 119 122 8 0
-5 -13 -30 -29 -51 -32 -90 -93 -63 -99 8 -2 84 4 167 12 253 27 231 21 262
70 16 26 42 50 64 60 29 13 32 13 16 1 -35 -26 -66 -57 -76 -76 -12 -23 2 -24
170 -9 197 18 201 19 201 40 0 29 45 75 84 87 20 6 34 7 30 2 -3 -5 -11 -9
-17 -9 -20 0 -75 -53 -82 -79 -7 -23 -6 -24 26 -17 19 4 89 9 157 13 116 6
125 8 139 30 17 26 91 73 114 73 8 -1 -4 -10 -26 -21 -44 -22 -82 -55 -73 -64
10 -11 283 17 287 29 7 18 68 76 80 76 7 0 -4 -14 -24 -31 -49 -43 -46 -60 8
-54 23 2 89 7 147 10 58 3 106 9 108 15 8 22 45 60 59 60 11 0 7 -7 -11 -21
-14 -11 -26 -27 -26 -36 0 -13 8 -15 46 -9 26 3 84 6 130 6 82 0 84 0 99 30
21 41 50 53 127 54 75 1 87 14 37 38 l-30 15 47 7 c26 3 65 6 86 6 l40 0 -31
-25 c-16 -14 -33 -35 -36 -45 -4 -14 -15 -20 -36 -20 -16 0 -29 -5 -29 -10 0
-7 -25 -10 -63 -9 -35 1 -73 -4 -86 -10 -28 -16 -21 -26 11 -15 28 9 36 10
111 12 36 1 56 6 52 12 -9 15 4 12 21 -5 24 -23 47 -18 66 15 22 38 72 60 137
60 l49 0 -1 36 -1 36 -161 -6 c-161 -6 -264 -6 -450 -2 -55 1 -138 1 -185 0z"/>
<path d="M600 2083 c-25 -2 -103 -10 -175 -18 -72 -9 -152 -18 -180 -20 -216
-19 -225 -21 -225 -50 0 -18 4 -23 15 -19 17 7 19 -8 9 -68 -4 -21 -10 -35
-15 -32 -5 3 -9 -29 -9 -70 l0 -76 29 0 c49 0 61 9 61 46 0 26 7 38 32 57 40
30 113 67 130 67 7 -1 -10 -12 -39 -26 -66 -32 -113 -75 -113 -104 0 -27 -9
-28 317 26 106 17 113 20 124 46 13 33 83 98 104 98 18 0 25 30 22 95 -2 55
-2 55 -87 48z"/>
<path d="M9390 2036 c0 -24 -3 -57 -6 -74 -5 -25 0 -36 30 -70 20 -21 36 -44
36 -49 0 -20 26 -31 95 -42 39 -6 140 -22 225 -37 85 -14 172 -28 193 -31 l37
-5 -1 83 c0 46 -3 78 -6 72 -9 -23 -18 -14 -21 20 -1 17 -3 41 -5 52 -1 14 4
20 16 19 11 -1 17 5 17 21 0 27 -13 31 -130 40 -47 4 -96 9 -110 11 -37 7
-311 34 -342 34 -26 0 -28 -3 -28 -44z"/>
<path d="M5541 1954 c1 -95 2 -105 13 -81 19 42 26 22 26 -74 0 -97 -4 -89 87
-170 22 -20 52 -52 68 -73 15 -20 33 -35 39 -33 6 3 22 -5 35 -17 l24 -21 -6
67 c-6 64 -32 137 -44 124 -3 -3 0 -12 7 -21 7 -8 10 -22 6 -31 -3 -8 -1 -24
5 -35 5 -11 9 -30 7 -42 -3 -20 -5 -19 -25 11 -14 23 -23 29 -27 20 -5 -10 -7
-11 -12 0 -3 7 -21 27 -39 45 -29 28 -32 35 -20 50 7 10 10 27 7 39 -4 17 -2
19 17 13 44 -14 18 11 -32 30 -73 28 -85 56 -65 151 16 78 16 77 -40 128 l-32
30 1 -110z"/>
<path d="M3970 2029 c-333 -8 -313 -6 -304 -20 5 -9 60 -10 196 -7 l190 6 10
-28 c5 -16 22 -33 38 -40 27 -11 28 -14 24 -73 -2 -34 -4 -68 -4 -74 0 -7 -9
-13 -21 -13 -13 0 -25 -11 -34 -33 l-14 -34 -128 -6 c-70 -4 -156 -7 -190 -7
-34 0 -64 -4 -67 -9 -3 -5 -2 -36 2 -68 5 -36 4 -66 -1 -75 -6 -8 -7 -23 -4
-31 5 -15 24 -16 149 -11 79 2 185 7 236 10 l93 6 -3 31 -3 31 -61 -3 c-61 -2
-61 -2 -85 36 -13 21 -25 41 -27 45 -2 4 41 9 95 10 l98 3 16 35 c25 52 52 71
116 84 74 15 85 34 70 123 -9 52 -8 65 6 87 9 14 17 28 17 31 0 3 -30 4 -67 3
-38 -1 -192 -5 -343 -9z"/>
<path d="M5649 2016 c21 -22 22 -30 15 -105 -8 -97 -2 -107 66 -116 59 -8 94
-34 118 -84 l17 -36 85 -3 c115 -3 116 -4 84 -52 -26 -40 -27 -40 -89 -40 -34
0 -64 -2 -67 -5 -3 -3 -3 -16 -1 -29 5 -23 10 -25 87 -30 44 -3 149 -8 233
-11 l152 -5 3 91 c2 50 1 95 -2 99 -3 4 -90 11 -193 15 l-189 8 -10 28 c-6 18
-19 31 -34 35 -13 3 -24 9 -24 13 -7 144 -8 140 21 152 15 6 32 23 37 38 l10
28 191 -5 c127 -3 191 -1 191 6 0 11 -134 18 -494 27 l-229 5 22 -24z"/>
<path d="M3489 2016 c-2 -2 -116 -7 -254 -10 -406 -11 -1129 -57 -1535 -97
-311 -30 -755 -81 -838 -95 l-33 -5 3 -360 c1 -263 5 -358 13 -355 38 14 438
110 585 140 305 62 729 130 910 146 52 4 199 20 325 33 127 14 320 33 430 42
110 8 233 20 273 25 40 6 91 10 112 10 36 0 40 2 40 26 0 25 -2 25 -62 24
-108 -3 -106 -3 -128 40 -11 21 -20 44 -20 50 0 6 25 10 59 10 103 0 151 10
151 32 0 18 -7 19 -127 16 -99 -2 -128 0 -128 10 0 7 -5 16 -11 20 -16 11 -46
99 -42 124 3 26 31 27 59 2 13 -12 17 -11 31 2 17 17 38 11 38 -10 0 -8 -7
-27 -15 -42 l-15 -29 41 -3 c38 -3 41 -5 36 -28 -4 -24 -3 -24 62 -23 57 0 62
2 38 11 -33 12 -31 30 4 38 35 8 38 52 5 87 -34 36 -41 60 -24 80 11 15 10 16
-9 11 -13 -4 -23 -2 -23 3 0 5 -9 4 -20 -3 -27 -17 -27 -52 -1 -43 11 3 22 2
25 -3 8 -14 -5 -50 -21 -56 -19 -8 -45 12 -37 26 4 6 -1 8 -14 4 -15 -5 -32 4
-67 34 -25 22 -52 40 -58 40 -7 -1 -21 -15 -32 -33 -12 -18 -29 -32 -40 -32
-18 0 -20 -7 -20 -58 0 -31 -3 -57 -7 -57 -5 0 -8 31 -8 68 0 63 2 70 25 80
13 6 31 27 39 46 l14 34 143 1 c144 2 164 5 154 22 -6 9 -18 12 -26 5z m-505
-62 c9 -3 16 -13 16 -21 0 -7 11 -25 24 -38 16 -16 21 -27 14 -31 -10 -7 -28
10 -53 49 -11 18 -46 21 -188 19 l-97 -2 -16 -40 c-17 -42 -39 -60 -73 -60
-24 0 -51 36 -51 69 l0 24 -97 -7 c-54 -3 -145 -9 -203 -12 -119 -7 -140 -15
-140 -49 0 -15 -9 -31 -23 -40 -20 -13 -24 -25 -25 -68 -2 -49 0 -53 30 -67
21 -10 35 -25 40 -44 10 -39 3 -44 -14 -10 -14 29 -26 38 -70 54 -27 9 -28 12
-28 80 0 47 4 70 12 70 18 0 48 31 48 51 0 10 8 22 18 27 48 26 824 66 876 46z
m-1081 -85 c5 -19 -8 -28 -15 -8 -3 10 -395 -35 -407 -47 -3 -3 -4 -20 -2 -39
5 -64 -57 -113 -108 -85 -24 13 -51 60 -51 90 0 20 -4 21 -52 16 -29 -3 -107
-11 -173 -17 -128 -11 -135 -13 -135 -34 0 -20 -49 -75 -67 -75 -12 0 -14 -8
-9 -37 3 -21 6 -52 6 -70 0 -25 5 -32 22 -35 12 -2 28 -14 35 -28 17 -34 7
-38 -17 -7 -11 14 -32 27 -47 29 -25 3 -26 6 -29 75 -3 57 0 75 12 85 49 39
74 69 74 87 0 12 4 21 8 21 32 0 785 85 877 99 60 9 71 6 78 -20z"/>
<path d="M6504 2009 c-7 -11 25 -19 75 -19 26 0 89 -3 138 -6 91 -7 91 -7 97
-36 4 -21 15 -33 36 -41 29 -11 30 -13 30 -79 0 -37 -3 -68 -7 -68 -5 0 -6 24
-5 54 4 52 2 55 -26 70 -17 9 -34 26 -38 38 -9 32 -14 33 -78 30 -51 -4 -58
-7 -72 -33 -15 -31 -34 -31 -34 0 0 14 -8 18 -35 18 -25 0 -32 -3 -25 -12 5
-7 6 -15 2 -19 -4 -4 -2 -6 3 -5 6 2 20 -1 33 -5 16 -5 22 -14 20 -29 -4 -28
-30 -29 -38 -2 -8 29 -29 29 -36 -1 -4 -13 -9 -23 -12 -20 -11 12 -32 -18 -32
-44 0 -21 7 -30 30 -40 32 -13 31 -26 -4 -40 l-21 -9 23 0 c30 -1 28 -21 -3
-21 -22 0 -24 -4 -23 -37 1 -21 -1 -66 -6 -100 l-8 -62 44 -5 c23 -3 115 -10
203 -16 277 -19 686 -60 1070 -106 398 -48 1196 -208 1370 -274 15 -6 35 -10
46 -10 18 0 19 9 19 209 -1 174 -3 210 -15 215 -22 8 -21 164 0 172 23 9 21
121 -2 128 -32 10 -576 73 -903 105 -553 55 -1802 123 -1816 100z m936 -59
c113 -6 265 -16 339 -23 l133 -12 12 -35 c6 -20 21 -40 36 -47 24 -11 25 -15
20 -80 -5 -66 -6 -68 -36 -78 -41 -13 -64 -33 -64 -56 0 -11 -4 -19 -9 -19
-12 0 3 56 20 76 6 8 19 14 29 14 14 0 19 10 22 48 4 42 2 50 -24 75 -15 16
-28 39 -28 53 0 13 -1 24 -2 25 -7 1 -244 20 -330 25 l-96 7 -11 -41 c-11 -40
-26 -52 -61 -52 -22 0 -70 54 -70 79 0 16 -14 19 -110 24 -146 8 -179 2 -175
-29 1 -13 -1 -21 -5 -19 -4 3 -13 -2 -20 -10 -6 -7 -18 -11 -27 -8 -13 5 -13
7 1 15 9 5 23 25 31 44 l14 34 103 0 c57 0 196 -5 308 -10z m852 -75 c137 -17
420 -49 622 -70 81 -8 152 -17 156 -20 4 -2 10 -18 13 -35 5 -22 16 -35 42
-47 l35 -17 0 -78 c0 -66 -3 -79 -17 -84 -43 -13 -68 -31 -73 -54 -4 -16 -13
-25 -25 -26 -12 -1 -14 1 -4 3 9 2 20 20 25 41 7 27 15 38 34 42 23 5 25 12
30 69 5 62 5 63 -27 82 -18 12 -36 34 -43 53 l-11 34 -82 7 c-45 4 -111 11
-147 16 -102 14 -118 12 -125 -13 -12 -43 -40 -88 -58 -94 -9 -3 -30 -3 -46 1
-32 7 -54 46 -51 87 5 51 29 43 -250 78 -85 11 -157 20 -161 20 -4 0 -12 -13
-19 -29 -8 -20 -21 -32 -41 -36 -34 -8 -44 -35 -36 -96 3 -21 1 -39 -4 -39
-12 0 -12 107 1 129 5 10 22 21 38 24 22 4 33 15 40 37 13 36 20 37 184 15z"/>
<path d="M4420 1971 c-13 -28 -14 -46 -6 -88 13 -72 1 -95 -68 -126 -57 -27
-73 -39 -35 -30 19 5 21 3 16 -19 -5 -17 -2 -30 8 -38 13 -11 11 -17 -19 -46
-19 -18 -36 -39 -39 -46 -4 -11 -7 -11 -15 0 -6 9 -11 6 -20 -13 -16 -34 -36
-33 -28 3 11 47 11 55 0 59 -13 4 -24 -41 -24 -99 l0 -39 26 20 c15 12 32 21
38 21 7 0 25 17 41 38 15 21 48 53 73 72 72 55 73 59 70 221 -3 139 -4 143
-18 110z"/>
<path d="M6127 1948 c-7 -5 -2 -8 13 -9 14 0 19 -3 13 -6 -20 -7 -15 -51 8
-74 15 -15 28 -19 52 -14 21 4 27 3 19 -3 -11 -7 -7 -14 16 -31 32 -22 47 -27
38 -12 -3 5 1 11 9 15 23 8 18 29 -5 23 -11 -3 -23 -1 -26 4 -3 5 2 9 12 9 13
0 14 3 4 15 -7 8 -18 31 -25 51 -12 35 -14 36 -64 38 -29 1 -58 -2 -64 -6z"/>
<path d="M445 1755 c-333 -55 -417 -72 -426 -86 -13 -21 14 -23 89 -5 94 23
262 53 426 76 144 21 160 25 151 41 -8 12 -9 12 -240 -26z"/>
<path d="M9390 1765 c0 -9 9 -15 24 -15 32 0 350 -54 466 -79 52 -12 100 -21
107 -21 19 0 16 28 -4 34 -22 7 -562 96 -580 96 -7 0 -13 -7 -13 -15z"/>
<path d="M590 1724 c-136 -20 -270 -44 -270 -49 0 -2 6 -18 14 -36 11 -29 11
-39 -1 -67 -17 -40 -71 -67 -119 -58 -42 8 -55 26 -62 81 -2 25 -8 45 -12 45
-4 0 -32 -5 -63 -11 l-57 -12 -1 -196 c0 -265 0 -734 0 -743 1 -4 22 15 47 42
87 93 295 209 514 288 l105 38 1 167 1 167 -26 1 -26 1 24 7 c24 6 24 7 28
174 l3 167 -37 -1 c-21 -1 -49 -3 -63 -5z"/>
<path d="M9389 1553 c0 -98 -1 -256 -2 -352 l-2 -173 77 -29 c207 -76 421
-199 497 -286 l41 -46 0 476 0 475 -63 11 c-35 6 -66 11 -69 11 -3 0 -3 -11 0
-25 6 -34 -14 -80 -43 -95 -32 -17 -92 -7 -121 21 -31 29 -38 64 -20 100 11
22 12 31 3 34 -38 11 -110 26 -167 35 -36 6 -80 13 -97 16 l-33 5 -1 -178z"/>
<path d="M4355 1451 l-50 -58 -80 -6 c-44 -4 -125 -7 -180 -7 l-100 0 -35
-142 -36 -143 -137 -9 c-128 -8 -139 -7 -158 10 -23 20 -23 32 -3 207 l7 58
-149 -7 c-82 -3 -153 -10 -158 -15 -5 -4 -15 -67 -21 -139 -7 -72 -14 -132
-16 -134 -3 -4 -154 -20 -257 -28 l-34 -3 -1 133 c0 98 -4 135 -13 139 -13 5
-210 -13 -264 -24 l-30 -5 0 -142 0 -142 -117 -17 c-65 -9 -120 -13 -124 -9
-3 4 -16 63 -28 132 -13 69 -26 128 -30 133 -8 8 -271 -31 -283 -42 -4 -4 4
-66 18 -139 14 -74 24 -136 21 -138 -3 -3 -51 -14 -108 -24 -57 -10 -118 -22
-135 -25 l-31 -7 -22 84 c-34 132 -50 191 -54 195 -8 7 -296 -55 -310 -67 -4
-4 8 -57 28 -119 44 -142 45 -156 3 -170 -66 -20 -226 -61 -240 -61 -9 0 -24
32 -42 93 -38 124 -57 177 -65 177 -21 0 -246 -82 -252 -92 -4 -6 -3 -18 1
-27 5 -9 21 -45 35 -81 15 -36 35 -84 46 -108 10 -23 19 -45 19 -47 0 -11
-143 -76 -156 -71 -8 3 -17 14 -21 23 -14 40 -104 222 -112 227 -17 11 -191
-114 -191 -137 0 -7 -14 -30 -32 -51 -27 -33 -33 -50 -36 -101 -5 -70 8 -101
67 -174 45 -55 120 -105 246 -166 134 -64 201 -89 405 -153 65 -20 71 -20
3630 -17 1961 1 3583 3 3605 4 22 1 128 -2 235 -5 l195 -6 139 46 c212 70 305
109 446 189 99 55 146 100 181 173 27 55 31 73 26 113 -3 27 -17 65 -31 85
-14 21 -28 46 -31 56 -7 21 -109 102 -168 132 l-39 19 -5 -20 c-3 -12 -10 -21
-15 -21 -5 0 -7 -4 -3 -9 3 -5 0 -15 -7 -23 -7 -7 -14 -18 -15 -24 -1 -6 -19
-47 -40 -91 l-38 -81 -83 40 -82 39 14 27 c8 15 33 74 56 132 35 92 39 106 25
116 -28 21 -236 87 -245 78 -5 -5 -29 -68 -52 -140 l-43 -131 -140 39 c-76 21
-141 40 -142 42 -2 2 11 55 28 117 41 148 42 156 32 162 -7 4 -166 41 -270 62
-39 8 -37 11 -84 -157 -17 -65 -32 -118 -33 -118 -19 2 -271 51 -273 54 -2 2
8 63 22 136 15 73 23 136 18 140 -12 12 -275 52 -284 43 -4 -5 -17 -64 -29
-133 -12 -69 -25 -128 -29 -132 -3 -4 -59 1 -123 10 l-118 16 0 142 0 142 -30
5 c-53 11 -251 29 -264 24 -9 -4 -13 -42 -14 -132 0 -71 -5 -131 -9 -135 -11
-10 -266 19 -274 32 -4 6 -10 63 -14 127 -3 65 -10 124 -15 131 -10 17 -118
28 -277 29 l-102 1 -41 -72 c-22 -40 -52 -98 -67 -128 -34 -67 -39 -71 -83
-68 l-35 3 -34 141 -34 141 -176 6 -176 5 -59 63 c-65 68 -67 68 -85 -19 l-11
-52 53 -74 c64 -90 113 -157 127 -173 9 -10 -14 -13 -110 -13 -106 0 -140 -7
-112 -23 4 -3 99 -8 212 -12 196 -7 403 -19 520 -30 30 -3 152 -12 270 -20
276 -20 627 -52 755 -70 55 -8 125 -17 155 -20 86 -10 436 -63 460 -70 8 -2
35 -7 60 -10 25 -4 99 -17 166 -30 66 -13 131 -26 145 -29 189 -37 516 -127
661 -182 219 -83 385 -186 433 -268 35 -59 33 -89 -7 -114 -34 -22 -50 -15
-41 18 7 27 -69 160 -92 160 -3 0 -21 11 -38 24 -38 28 -161 91 -197 101 -28
7 -56 18 -115 46 -36 16 -116 41 -230 71 -22 6 -49 14 -60 18 -58 21 -89 29
-96 24 -5 -3 -21 1 -36 9 -25 13 -78 25 -141 31 -13 1 -27 7 -30 13 -4 6 -38
14 -77 17 -38 4 -88 12 -110 18 -22 6 -71 14 -110 18 -73 8 -101 13 -200 34
-33 7 -78 14 -99 15 -21 1 -46 6 -55 10 -9 5 -52 12 -96 16 -44 3 -114 11
-155 17 -113 16 -114 16 -265 32 -77 8 -158 17 -180 20 -64 8 -332 28 -430 32
-50 1 -98 6 -106 9 -9 3 -20 5 -25 3 -5 -1 -49 1 -98 6 -69 6 -91 4 -97 -6
-14 -21 -10 -38 9 -38 38 -1 -66 -30 -109 -30 -44 0 -46 -1 -46 -30 0 -25 4
-30 26 -30 18 0 22 3 14 11 -16 16 -5 39 18 39 20 0 27 -34 10 -44 -5 -3 -7
-15 -4 -26 4 -14 -1 -21 -20 -25 -14 -4 -164 -4 -334 -1 -836 16 -1086 17
-1348 7 -267 -11 -902 -22 -763 -14 49 3 68 8 72 20 4 9 2 21 -4 27 -18 18
-12 46 11 46 19 0 21 -4 15 -31 -5 -26 -3 -30 10 -25 9 3 19 6 22 6 4 0 7 15
8 33 0 31 -1 32 -33 29 -54 -7 -82 5 -96 41 l-14 32 -72 -3 c-39 -2 -69 -7
-67 -10 2 -4 -37 -8 -87 -9 -51 -1 -99 -3 -107 -4 -8 -1 -87 -8 -175 -16 -232
-20 -335 -31 -375 -37 -19 -3 -60 -8 -90 -11 -147 -13 -176 -17 -195 -25 -11
-4 -60 -13 -110 -19 -49 -6 -115 -16 -145 -22 -30 -6 -98 -17 -150 -24 -158
-24 -260 -43 -370 -70 -117 -28 -121 -29 -205 -48 -63 -15 -156 -43 -190 -57
-11 -5 -31 -11 -45 -13 -50 -9 -160 -54 -153 -62 5 -4 0 -5 -9 -2 -10 3 -24 0
-32 -8 -8 -8 -21 -15 -28 -15 -20 0 -147 -68 -181 -96 -15 -13 -33 -24 -38
-24 -33 0 -99 -111 -99 -165 l0 -36 -40 22 c-46 26 -48 36 -19 96 40 83 192
188 379 263 30 12 64 26 75 31 62 26 404 122 550 154 251 55 537 106 785 140
19 2 82 11 140 20 198 28 613 69 909 90 100 8 108 9 131 18 25 10 1009 45
1338 47 51 0 62 3 62 17 0 15 -30 16 -377 10 -208 -3 -370 -3 -360 1 10 4 18
11 18 15 -2 18 2 25 39 67 22 25 40 50 40 55 0 6 11 22 25 37 14 15 25 30 25
34 0 4 7 16 16 26 16 17 16 22 -1 83 -9 36 -20 65 -24 65 -3 -1 -28 -27 -56
-59z m1168 -672 c17 17 38 13 35 -6 -2 -13 5 -19 25 -21 31 -4 37 -22 7 -22
-23 0 -26 -10 -8 -28 9 -9 5 -12 -21 -12 -20 0 -39 -7 -47 -17 -13 -17 -15
-17 -25 0 -6 11 -22 17 -44 17 -35 0 -46 12 -24 26 8 5 6 10 -5 16 -26 14 -19
28 15 28 17 0 28 4 24 10 -13 22 7 31 32 15 18 -12 28 -14 36 -6z m-526 0 c8
-8 17 -8 31 0 30 16 43 14 40 -6 -2 -13 5 -19 25 -21 32 -4 36 -17 5 -25 -18
-5 -19 -8 -8 -21 13 -17 9 -19 -28 -16 -13 1 -30 -4 -38 -11 -13 -10 -17 -10
-24 1 -5 8 -18 11 -39 7 -30 -6 -51 6 -31 18 16 10 11 22 -12 30 -22 7 -21 8
7 14 21 5 29 12 27 24 -3 19 27 24 45 6z m35 -368 c-9 -5 2 -13 35 -25 26 -9
56 -21 66 -27 9 -5 28 -7 42 -3 18 5 25 2 25 -9 0 -22 49 -36 111 -32 121 7
209 18 209 27 0 4 23 6 51 4 57 -5 109 2 109 15 0 4 -8 10 -17 12 -10 2 -7 3
7 0 14 -2 53 -6 88 -10 69 -6 71 -10 33 -77 -42 -75 -50 -93 -51 -113 -1 -56
-159 -104 -420 -128 -375 -34 -780 -1 -932 76 -34 17 -41 29 -41 65 0 5 26 43
58 82 45 56 62 71 77 67 10 -4 69 -7 132 -8 63 -1 112 -5 109 -9 -2 -5 7 -8
21 -8 14 0 28 5 31 10 3 6 17 10 30 10 14 0 40 9 60 20 20 11 42 20 50 20 22
0 86 36 78 44 -3 3 7 6 23 6 19 0 25 -3 16 -9z"/>
<path d="M4535 952 l-211 -2 0 -35 0 -35 58 0 c56 0 58 1 52 24 -4 16 -1 25
11 30 23 9 38 -3 32 -25 -4 -14 0 -19 17 -19 17 0 22 6 22 23 -1 13 5 22 14
22 9 0 15 -9 14 -22 0 -18 5 -23 23 -23 20 0 22 3 14 19 -12 22 -5 31 22 31
15 0 18 -5 15 -25 -5 -22 -2 -25 26 -25 22 0 27 3 17 9 -20 13 -6 41 20 41 17
0 20 -5 17 -25 -4 -21 -1 -25 19 -25 20 0 22 3 13 19 -8 16 -6 22 7 30 10 5
16 11 13 13 -3 2 -100 2 -215 0z"/>
<path d="M14 318 c3 -29 6 -108 6 -174 l0 -122 243 -7 c259 -7 368 -4 330 9
-12 5 -73 30 -135 58 -62 27 -124 52 -138 56 -71 16 -290 183 -290 222 0 5 -5
10 -11 10 -8 0 -10 -16 -5 -52z"/>
<path d="M9981 347 c-18 -47 -188 -177 -268 -203 -14 -5 -135 -55 -288 -120
-34 -14 49 -16 323 -9 l252 7 0 174 c0 96 -2 174 -5 174 -3 0 -9 -10 -14 -23z"/>
</g>
</svg>
